<svg width="323" height="323" viewBox="0 0 323 323" fill="none" xmlns="http://www.w3.org/2000/svg" style="">
<path d="M162.225 51.645L255.623 213.416C256.393 214.75 255.431 216.416 253.891 216.416H67.0938C65.5542 216.416 64.5919 214.75 65.3617 213.416L158.76 51.645C159.53 50.3117 161.455 50.3117 162.225 51.645Z" stroke="#00CAFF" stroke-width="2" class="hbKRJBxB_0"></path>
<path d="M191.036 56.5839L239.352 236.902C239.75 238.39 238.39 239.75 236.902 239.352L56.5839 191.036C55.0967 190.637 54.5986 188.778 55.6873 187.69L187.69 55.6873C188.778 54.5986 190.637 55.0967 191.036 56.5839Z" stroke="#BA90FF" stroke-width="2" class="hbKRJBxB_1"></path>
<path d="M217.098 67.8687L217.098 254.548C217.098 256.088 215.432 257.05 214.098 256.28L52.429 162.941C51.0956 162.171 51.0956 160.246 52.429 159.476L214.098 66.1367C215.432 65.3669 217.098 66.3291 217.098 67.8687Z" stroke="#46FE7A" stroke-width="2" class="hbKRJBxB_2"></path>
<path d="M239.352 85.5145L191.036 265.833C190.637 267.32 188.778 267.818 187.69 266.73L55.6873 134.727C54.5986 133.639 55.0967 131.78 56.5839 131.381L236.902 83.065C238.39 82.6666 239.75 84.0274 239.352 85.5145Z" stroke="#FAF605" stroke-width="2" class="hbKRJBxB_3"></path>
<path d="M256.28 108.319L162.94 269.988C162.171 271.321 160.246 271.321 159.476 269.988L66.1366 108.319C65.3668 106.985 66.329 105.319 67.8686 105.319L254.548 105.319C256.088 105.319 257.05 106.985 256.28 108.319Z" stroke="#FF963B" stroke-width="2" class="hbKRJBxB_4"></path>
<path d="M266.73 134.727L134.727 266.73C133.639 267.818 131.78 267.32 131.381 265.833L83.0651 85.5145C82.6666 84.0274 84.0274 82.6666 85.5146 83.065L265.833 131.381C267.32 131.78 267.818 133.639 266.73 134.727Z" stroke="#FF5B6F" stroke-width="2" class="hbKRJBxB_5"></path>
<path d="M269.34 162.225L107.569 255.623C106.235 256.393 104.569 255.431 104.569 253.891L104.569 67.0938C104.569 65.5542 106.235 64.592 107.569 65.3618L269.34 158.76C270.673 159.53 270.673 161.455 269.34 162.225Z" stroke="#BA90FF" stroke-width="2" class="hbKRJBxB_6"></path>
<path d="M265.833 191.036L85.5145 239.352C84.0274 239.75 82.6666 238.39 83.065 236.902L131.381 56.5838C131.78 55.0967 133.639 54.5986 134.727 55.6873L266.73 187.69C267.818 188.778 267.32 190.637 265.833 191.036Z" stroke="#00CAFF" stroke-width="2" class="hbKRJBxB_7"></path>
<style data-made-with="vivus-instant">.hbKRJBxB_0{stroke-dasharray:573 575;stroke-dashoffset:574;animation:hbKRJBxB_draw_0 7200ms linear 0ms infinite,hbKRJBxB_fade 7200ms linear 0ms infinite;}.hbKRJBxB_1{stroke-dasharray:573 575;stroke-dashoffset:574;animation:hbKRJBxB_draw_1 7200ms linear 0ms infinite,hbKRJBxB_fade 7200ms linear 0ms infinite;}.hbKRJBxB_2{stroke-dasharray:573 575;stroke-dashoffset:574;animation:hbKRJBxB_draw_2 7200ms linear 0ms infinite,hbKRJBxB_fade 7200ms linear 0ms infinite;}.hbKRJBxB_3{stroke-dasharray:573 575;stroke-dashoffset:574;animation:hbKRJBxB_draw_3 7200ms linear 0ms infinite,hbKRJBxB_fade 7200ms linear 0ms infinite;}.hbKRJBxB_4{stroke-dasharray:573 575;stroke-dashoffset:574;animation:hbKRJBxB_draw_4 7200ms linear 0ms infinite,hbKRJBxB_fade 7200ms linear 0ms infinite;}.hbKRJBxB_5{stroke-dasharray:573 575;stroke-dashoffset:574;animation:hbKRJBxB_draw_5 7200ms linear 0ms infinite,hbKRJBxB_fade 7200ms linear 0ms infinite;}.hbKRJBxB_6{stroke-dasharray:573 575;stroke-dashoffset:574;animation:hbKRJBxB_draw_6 7200ms linear 0ms infinite,hbKRJBxB_fade 7200ms linear 0ms infinite;}.hbKRJBxB_7{stroke-dasharray:573 575;stroke-dashoffset:574;animation:hbKRJBxB_draw_7 7200ms linear 0ms infinite,hbKRJBxB_fade 7200ms linear 0ms infinite;}@keyframes hbKRJBxB_draw{100%{stroke-dashoffset:0;}}@keyframes hbKRJBxB_fade{0%{stroke-opacity:1;}94.44444444444444%{stroke-opacity:1;}100%{stroke-opacity:0;}}@keyframes hbKRJBxB_draw_0{11.11111111111111%{stroke-dashoffset: 574}38.88888888888889%{ stroke-dashoffset: 0;}100%{ stroke-dashoffset: 0;}}@keyframes hbKRJBxB_draw_1{13.095238095238097%{stroke-dashoffset: 574}40.87301587301588%{ stroke-dashoffset: 0;}100%{ stroke-dashoffset: 0;}}@keyframes hbKRJBxB_draw_2{15.07936507936508%{stroke-dashoffset: 574}42.85714285714286%{ stroke-dashoffset: 0;}100%{ stroke-dashoffset: 0;}}@keyframes hbKRJBxB_draw_3{17.06349206349206%{stroke-dashoffset: 574}44.841269841269835%{ stroke-dashoffset: 0;}100%{ stroke-dashoffset: 0;}}@keyframes hbKRJBxB_draw_4{19.04761904761905%{stroke-dashoffset: 574}46.82539682539682%{ stroke-dashoffset: 0;}100%{ stroke-dashoffset: 0;}}@keyframes hbKRJBxB_draw_5{21.03174603174603%{stroke-dashoffset: 574}48.80952380952381%{ stroke-dashoffset: 0;}100%{ stroke-dashoffset: 0;}}@keyframes hbKRJBxB_draw_6{23.015873015873016%{stroke-dashoffset: 574}50.79365079365079%{ stroke-dashoffset: 0;}100%{ stroke-dashoffset: 0;}}@keyframes hbKRJBxB_draw_7{25%{stroke-dashoffset: 574}52.77777777777778%{ stroke-dashoffset: 0;}100%{ stroke-dashoffset: 0;}}</style></svg>
