<?xml version="1.0" standalone="no"?>
<!DOCTYPE svg PUBLIC "-//W3C//DTD SVG 20010904//EN"
 "http://www.w3.org/TR/2001/REC-SVG-20010904/DTD/svg10.dtd">
<svg version="1.0" xmlns="http://www.w3.org/2000/svg"
 width="403.000000pt" height="403.000000pt" viewBox="0 0 403.000000 403.000000"
 preserveAspectRatio="xMidYMid meet">
<metadata>
Created by potrace 1.11, written by Peter Selinger 2001-2013
</metadata>
<g transform="translate(0.000000,403.000000) scale(0.100000,-0.100000)"
fill="#000000" stroke="none">
<path d="M198 4025 c-3 -3 -15 -8 -27 -10 -35 -7 -87 -42 -113 -78 -57 -78
-53 69 -53 -1926 0 -1692 1 -1838 17 -1866 25 -47 79 -100 123 -121 39 -19 86
-19 1850 -22 2019 -3 1876 -7 1953 67 23 22 49 55 59 73 17 31 18 121 21 1853
2 1636 1 1824 -14 1867 -18 55 -62 107 -119 140 l-40 23 -1826 3 c-1004 1
-1828 0 -1831 -3z"/>
</g>
</svg>
